<svg width="34" height="34" viewBox="0 0 34 34" fill="none" xmlns="http://www.w3.org/2000/svg">
<path d="M9.49999 2.16667C1.24999 6.58334 -2.00001 16.5833 2.16666 24.5C6.58333 32.75 16.5833 36 24.5 31.8333C32.75 27.4167 36 17.4167 31.8333 9.50001C27.4167 1.25001 17.4167 -1.99999 9.49999 2.16667ZM19 8.25001L20.4167 12.8333H25.4167C28.0833 12.8333 30.3333 13.1667 30.3333 13.5C30.3333 13.9167 28.6667 15.4167 26.5833 16.9167C24.5 18.4167 22.8333 19.6667 22.8333 19.8333C22.8333 19.9167 23.4167 21.75 24.1667 23.9167C24.9167 26.0833 25.3333 28.1667 25.1667 28.6667C25 29.1667 23.4167 28.4167 21.5833 27.0833C19.75 25.6667 17.6667 24.5833 17 24.5833C16.3333 24.5833 14.25 25.6667 12.4167 27.0833C10.5833 28.4167 8.99999 29.1667 8.83333 28.6667C8.66666 28.1667 9.08333 26.0833 9.83333 23.9167C10.5833 21.75 11.1667 19.9167 11.1667 19.8333C11.1667 19.6667 9.49999 18.4167 7.41666 16.9167C5.33333 15.4167 3.66666 13.9167 3.66666 13.5C3.66666 13.1667 5.91666 12.8333 8.58333 12.8333H13.5833L15 8.25001C15.8333 5.75001 16.75 3.66667 17 3.66667C17.25 3.66667 18.1667 5.75001 19 8.25001Z" fill="#636AE8"/>
</svg>
