<svg width="40" height="40" viewBox="0 0 40 40" fill="none" xmlns="http://www.w3.org/2000/svg">
<circle cx="20" cy="20" r="20" fill="#FDDEDE"/>
<path d="M19.1667 22.5H20.8333V24.1667H19.1667V22.5ZM19.1667 15.8334H20.8333V20.8334H19.1667V15.8334ZM19.9917 11.6667C15.3917 11.6667 11.6667 15.4 11.6667 20C11.6667 24.6 15.3917 28.3334 19.9917 28.3334C24.6 28.3334 28.3333 24.6 28.3333 20C28.3333 15.4 24.6 11.6667 19.9917 11.6667ZM20 26.6667C16.3167 26.6667 13.3333 23.6834 13.3333 20C13.3333 16.3167 16.3167 13.3334 20 13.3334C23.6833 13.3334 26.6667 16.3167 26.6667 20C26.6667 23.6834 23.6833 26.6667 20 26.6667Z" fill="#913838"/>
</svg>
