<svg width="40" height="40" viewBox="0 0 40 40" fill="none" xmlns="http://www.w3.org/2000/svg">
<circle cx="20" cy="20" r="20" fill="#DFE0FF"/>
<path d="M20 28.3334C18.0695 27.8472 16.4757 26.7396 15.2188 25.0104C13.9618 23.2813 13.3333 21.3611 13.3333 19.25V14.1667L20 11.6667L26.6667 14.1667V19.25C26.6667 21.3611 26.0382 23.2813 24.7813 25.0104C23.5243 26.7396 21.9306 27.8472 20 28.3334ZM20 26.5834C21.4445 26.125 22.6389 25.2084 23.5833 23.8334C24.5278 22.4584 25 20.9306 25 19.25V15.3125L20 13.4375L15 15.3125V19.25C15 20.9306 15.4722 22.4584 16.4167 23.8334C17.3611 25.2084 18.5556 26.125 20 26.5834ZM20 24.1667C20 23 20.4028 22.0139 21.2083 21.2084C22.0139 20.4028 23 20 24.1667 20C23 20 22.0139 19.5972 21.2083 18.7917C20.4028 17.9861 20 17 20 15.8334C20 17 19.5972 17.9861 18.7917 18.7917C17.9861 19.5972 17 20 15.8333 20C17 20 17.9861 20.4028 18.7917 21.2084C19.5972 22.0139 20 23 20 24.1667Z" fill="#636AE8"/>
</svg>
