<svg width="40" height="40" viewBox="0 0 40 40" fill="none" xmlns="http://www.w3.org/2000/svg">
<rect x="0.5" y="0.5" width="39" height="39" rx="19.5" fill="#636AE8"/>
<rect x="0.5" y="0.5" width="39" height="39" rx="19.5" stroke="url(#paint0_linear_104_129)"/>
<path opacity="0.6" d="M21.667 23.3333C21.667 24.8083 21.0253 26.1416 20.0003 27.05C19.117 27.85 17.9503 28.3333 16.667 28.3333C13.9087 28.3333 11.667 26.0916 11.667 23.3333C11.667 21.0333 13.2337 19.0833 15.3503 18.5083C15.9253 19.9583 17.1587 21.075 18.6837 21.4916C19.1003 21.6083 19.542 21.6666 20.0003 21.6666C20.4587 21.6666 20.9003 21.6083 21.317 21.4916C21.542 22.0583 21.667 22.6833 21.667 23.3333Z" fill="white"/>
<path d="M25 16.667C25 17.317 24.875 17.942 24.65 18.5087C24.075 19.9587 22.8417 21.0753 21.3167 21.492C20.9 21.6087 20.4583 21.667 20 21.667C19.5417 21.667 19.1 21.6087 18.6833 21.492C17.1583 21.0753 15.925 19.9587 15.35 18.5087C15.125 17.942 15 17.317 15 16.667C15 13.9087 17.2417 11.667 20 11.667C22.7583 11.667 25 13.9087 25 16.667Z" fill="white"/>
<path opacity="0.4" d="M28.3333 23.3333C28.3333 26.0916 26.0917 28.3333 23.3333 28.3333C22.05 28.3333 20.8833 27.85 20 27.05C21.025 26.1416 21.6667 24.8083 21.6667 23.3333C21.6667 22.6833 21.5417 22.0583 21.3167 21.4916C22.8417 21.075 24.075 19.9583 24.65 18.5083C26.7667 19.0833 28.3333 21.0333 28.3333 23.3333Z" fill="white"/>
<defs>
<linearGradient id="paint0_linear_104_129" x1="20" y1="0" x2="20" y2="40" gradientUnits="userSpaceOnUse">
<stop stop-color="white" stop-opacity="0"/>
<stop offset="1" stop-color="white" stop-opacity="0.24"/>
</linearGradient>
</defs>
</svg>
