<svg width="24" height="24" viewBox="0 0 24 24" fill="none" xmlns="http://www.w3.org/2000/svg">
<g clip-path="url(#clip0_636_16)">
<path d="M23.8663 9.49804C23.8663 8.38199 22.9615 7.47712 21.8454 7.47712H21.3943C21.9682 7.12063 22.3507 6.4848 22.3507 5.7594C22.3507 4.64335 21.4459 3.73848 20.3298 3.73848H19.6765C20.2504 3.38199 20.6329 2.74616 20.6329 2.02076C20.6329 0.904789 19.7281 0 18.6121 0C17.6408 0 8.46709 8.17261e-05 8.29947 8.17261e-05C6.72207 8.17261e-05 5.32873 0.802632 4.50599 2.02092H1.80715C0.882993 2.02092 0.133728 2.7701 0.133728 3.69434V10.2029C0.133728 11.1271 0.882911 11.8763 1.80715 11.8763H3.83625C4.018 12.665 4.41879 13.3885 4.99913 13.9835C8.29947 17.3669 10.413 20.4037 11.7623 22.8414C12.362 23.9248 13.4628 24.2714 14.4709 23.7837C15.3759 23.3458 15.808 22.3231 15.5341 21.3893C15.0585 19.7623 14.5576 17.8511 13.1563 15.2574H20.6843C21.8004 15.2574 22.7052 14.3526 22.7052 13.2365C22.7052 12.5111 22.3228 11.8753 21.7488 11.5188H21.8452C22.9615 11.5189 23.8663 10.6141 23.8663 9.49804Z" fill="#913838"/>
</g>
<defs>
<clipPath id="clip0_636_16">
<rect width="24" height="24" fill="white"/>
</clipPath>
</defs>
</svg>
